<?xml version="1.0" encoding="utf-8"?>
<!-- Generator: Adobe Illustrator 22.0.1, SVG Export Plug-In . SVG Version: 6.00 Build 0)  -->
<svg version="1.1" id="Capa_1" xmlns="http://www.w3.org/2000/svg" xmlns:xlink="http://www.w3.org/1999/xlink" x="0px" y="0px"
	 viewBox="0 0 48 17" style="enable-background:new 0 0 48 17;" xml:space="preserve">
<style type="text/css">
	.st0{fill:none;stroke:#ECB713;stroke-width:2;stroke-miterlimit:10;}
	.st1{fill:#ECB713;}
</style>
<polygon class="st0" points="1.4,8.5 7.1,1.1 41.5,1.1 46.7,8.5 41.6,16 7,16 "/>
<g>
	<path class="st1" d="M13.5,5.3L13.5,5.3L12.1,6l-0.2-0.8l1.7-0.9h0.9v7.8h-1V5.3z"/>
	<path class="st1" d="M21.3,8.9L21.3,8.9c0.2-0.2,0.4-0.5,0.5-0.7l1.7-2h1.3l-2.2,2.4l2.6,3.4h-1.3l-2-2.8l-0.5,0.6v2.2h-1V3.6h1
		V8.9z"/>
	<path class="st1" d="M26.4,6.3l1.3,3.4c0.1,0.4,0.3,0.8,0.4,1.2h0c0.1-0.3,0.2-0.8,0.4-1.2l1.2-3.4h1.1l-1.6,4.1
		c-0.8,2-1.3,3-2,3.6c-0.5,0.5-1,0.6-1.3,0.7l-0.3-0.9c0.3-0.1,0.6-0.3,0.9-0.5c0.3-0.2,0.6-0.6,0.9-1.2c0-0.1,0.1-0.2,0.1-0.3
		c0-0.1,0-0.1-0.1-0.3l-2.1-5.3H26.4z"/>
	<path class="st1" d="M36.6,10.5c0,0.6,0,1.1,0,1.6h-0.9l-0.1-0.9h0c-0.3,0.5-0.9,1.1-1.9,1.1c-0.9,0-2-0.5-2-2.5V6.3h1.1v3.2
		c0,1.1,0.3,1.8,1.3,1.8c0.7,0,1.2-0.5,1.4-1c0.1-0.2,0.1-0.3,0.1-0.5V6.3h1.1V10.5z"/>
</g>
<g>
</g>
<g>
</g>
<g>
</g>
<g>
</g>
<g>
</g>
<g>
</g>
<g>
</g>
<g>
</g>
<g>
</g>
<g>
</g>
<g>
</g>
<g>
</g>
<g>
</g>
<g>
</g>
<g>
</g>
</svg>
