<?xml version="1.0" encoding="utf-8"?>
<!-- Generator: Adobe Illustrator 22.0.1, SVG Export Plug-In . SVG Version: 6.00 Build 0)  -->
<svg version="1.1" id="Capa_1" xmlns="http://www.w3.org/2000/svg" xmlns:xlink="http://www.w3.org/1999/xlink" x="0px" y="0px"
	 viewBox="0 0 45 17" style="enable-background:new 0 0 45 17;" xml:space="preserve">
<style type="text/css">
	.st0{fill:none;stroke:#ECB713;stroke-width:2;stroke-miterlimit:10;}
	.st1{fill:#ECB713;}
</style>
<polygon class="st0" points="1.4,8.5 7.1,1.1 38.5,1.1 43.7,8.5 38.6,16 7,16 "/>
<g>
	<path class="st1" d="M13.7,4.9h-3.2l-0.3,2.2C10.4,7,10.5,7,10.8,7c0.6,0,1.3,0.1,1.8,0.5c0.7,0.4,1.2,1.1,1.2,2.2
		c0,1.7-1.3,2.9-3.1,2.9c-0.9,0-1.7-0.3-2.1-0.5l0.3-0.9c0.4,0.2,1,0.5,1.8,0.5c1.1,0,2-0.7,2-1.8c0-1.1-0.7-1.9-2.4-1.9
		C9.8,7.9,9.4,8,9.1,8l0.5-4.1h4V4.9z"/>
	<path class="st1" d="M19.6,9L19.6,9c0.2-0.2,0.4-0.5,0.6-0.7L22,6.1h1.4L21,8.7l2.8,3.7h-1.4l-2.2-3L19.6,10v2.4h-1.1V3.2h1.1V9z"
		/>
	<path class="st1" d="M25.1,6.1l1.4,3.7c0.1,0.4,0.3,0.9,0.4,1.3h0c0.1-0.4,0.2-0.9,0.4-1.3l1.2-3.7h1.2l-1.7,4.5
		c-0.8,2.2-1.4,3.3-2.2,3.9c-0.6,0.5-1.1,0.7-1.4,0.7l-0.3-1c0.3-0.1,0.7-0.3,1-0.6c0.3-0.2,0.7-0.7,1-1.3c0.1-0.1,0.1-0.2,0.1-0.3
		c0-0.1,0-0.2-0.1-0.3l-2.3-5.8H25.1z"/>
	<path class="st1" d="M36.1,10.7c0,0.6,0,1.2,0.1,1.7h-1l-0.1-1h0c-0.3,0.5-1,1.2-2.1,1.2c-1,0-2.2-0.5-2.2-2.8V6.1h1.1v3.5
		c0,1.2,0.4,2,1.4,2c0.8,0,1.3-0.5,1.5-1c0.1-0.2,0.1-0.4,0.1-0.6V6.1h1.1V10.7z"/>
</g>
<g>
</g>
<g>
</g>
<g>
</g>
<g>
</g>
<g>
</g>
<g>
</g>
<g>
</g>
<g>
</g>
<g>
</g>
<g>
</g>
<g>
</g>
<g>
</g>
<g>
</g>
<g>
</g>
<g>
</g>
</svg>
